<?xml version="1.0" encoding="UTF-8"?>
<!-- Generator: Adobe Illustrator 14.0.0, SVG Export Plug-In . SVG Version: 6.00 Build 43363)  -->
<!DOCTYPE svg PUBLIC "-//W3C//DTD SVG 1.1//EN" "http://www.w3.org/Graphics/SVG/1.1/DTD/svg11.dtd">
<svg version="1.1" id="Calque_1" xmlns="http://www.w3.org/2000/svg" xmlns:xlink="http://www.w3.org/1999/xlink" x="0px" y="0px" width="141.73px" height="28.346px" viewBox="0 0 141.73 28.346" enable-background="new 0 0 141.73 28.346" xml:space="preserve">
<g>
	<rect x="-0.001" y="0" fill-rule="evenodd" clip-rule="evenodd" fill="none" width="141.732" height="28.346"/>
	<path fill-rule="evenodd" clip-rule="evenodd" fill="#354D76" d="M37.515,7.947v13.021h1.66V7.947H37.515 M36.922,4.009   c0,0.355,0.143,0.664,0.427,0.948c0.309,0.262,0.641,0.403,0.996,0.403c0.38,0,0.712-0.142,1.021-0.403   c0.261-0.261,0.403-0.593,0.403-0.948c0-0.403-0.143-0.735-0.403-0.996c-0.261-0.262-0.617-0.403-1.021-0.403   s-0.735,0.142-0.996,0.403C37.064,3.274,36.922,3.606,36.922,4.009z M42.377,2.942v18.026h1.661V2.942H42.377z M29.995,8.302   c-0.877-0.45-1.85-0.688-2.917-0.688c-1.874,0-3.439,0.664-4.744,2.016c-1.305,1.305-1.969,2.918-1.969,4.815   s0.641,3.511,1.945,4.862c1.305,1.328,2.894,1.992,4.744,1.992c1.02,0,1.969-0.213,2.846-0.641   c0.878-0.427,1.685-1.067,2.372-1.921v2.229h1.66V7.947h-1.66v2.396C31.632,9.441,30.873,8.753,29.995,8.302z M24.658,9.916   c0.783-0.451,1.637-0.664,2.562-0.664c1.471,0,2.68,0.498,3.652,1.518c0.973,1.021,1.471,2.277,1.471,3.771   c0,0.996-0.214,1.897-0.664,2.68c-0.45,0.783-1.067,1.4-1.874,1.851c-0.83,0.475-1.684,0.712-2.609,0.712   c-0.901,0-1.755-0.237-2.538-0.712c-0.782-0.475-1.423-1.114-1.897-1.945c-0.45-0.854-0.688-1.73-0.688-2.656   c0-0.901,0.237-1.778,0.688-2.608C23.259,10.983,23.899,10.342,24.658,9.916z M5.991,5.124c2.49,0,4.316,0.166,5.432,0.475   c1.471,0.451,2.609,1.281,3.439,2.491c0.807,1.209,1.21,2.656,1.21,4.34c0,1.637-0.38,3.013-1.139,4.104   c-0.735,1.115-1.779,1.897-3.107,2.325c-0.949,0.308-2.633,0.45-5.053,0.45h-2.04V5.124H5.991z M3.026,3.369v17.6h5.598   c2.206,0,3.938-0.309,5.147-0.948c1.209-0.641,2.182-1.637,2.965-2.966c0.759-1.352,1.139-2.917,1.139-4.672   c0-2.04-0.475-3.796-1.447-5.266c-0.973-1.471-2.301-2.515-4.009-3.107c-1.162-0.427-3.083-0.641-5.74-0.641H3.026z M137.637,8.682   c-0.735-0.712-1.661-1.067-2.775-1.067c-1.328,0-2.609,0.545-3.819,1.637l0.166-1.305h-3.154l-1.755,13.021h3.154l0.617-4.602   c0.236-1.779,0.497-3.012,0.806-3.7c0.309-0.664,0.712-1.186,1.233-1.565c0.569-0.355,1.115-0.545,1.613-0.545   c0.546,0,0.973,0.142,1.28,0.427c0.309,0.284,0.451,0.688,0.451,1.209l-0.143,1.661l-0.948,7.115h3.178l0.974-7.305l0.189-2.277   C138.704,10.294,138.348,9.393,137.637,8.682z M120.392,11.765c0.594,0.593,0.878,1.329,0.878,2.254   c0,1.162-0.332,2.158-1.02,3.035c-0.688,0.878-1.685,1.306-2.989,1.306c-0.925,0-1.66-0.285-2.206-0.854   c-0.545-0.593-0.807-1.352-0.807-2.276c0-1.068,0.333-2.04,0.997-2.966c0.711-0.925,1.684-1.375,2.917-1.375   C119.087,10.888,119.847,11.172,120.392,11.765z M106.397,7.947l-1.779,13.021h3.202l1.756-13.021H106.397z M112.683,10.698   c-1.043,1.305-1.565,2.847-1.565,4.625c0,1.779,0.522,3.227,1.59,4.317c1.091,1.067,2.538,1.613,4.341,1.613   c2.11,0,3.843-0.688,5.242-2.063c1.399-1.399,2.11-3.084,2.11-5.053c0-1.186-0.261-2.253-0.759-3.226   c-0.545-0.973-1.257-1.708-2.158-2.206c-0.926-0.521-1.945-0.782-3.084-0.782l-7.732,0.023l-0.427,2.751H112.683z M109.979,3.226   c-0.402-0.379-0.877-0.569-1.423-0.569c-0.545,0-0.996,0.19-1.376,0.569c-0.402,0.403-0.593,0.854-0.593,1.399   c0,0.546,0.19,0.996,0.593,1.376c0.38,0.403,0.831,0.593,1.376,0.593c0.546,0,1.021-0.189,1.423-0.593   c0.38-0.38,0.57-0.83,0.57-1.376C110.549,4.081,110.358,3.629,109.979,3.226z M102.626,7.947l0.641-4.839h-3.179l-0.664,4.839   h-1.565l-0.38,2.775h1.59l-1.4,10.246h3.179l1.376-10.246h2.017l0.379-2.775H102.626z M91.833,11.765   c0.569,0.569,0.854,1.329,0.854,2.254c0,1.138-0.332,2.158-0.995,3.035c-0.664,0.878-1.661,1.306-2.966,1.306   c-0.925,0-1.66-0.285-2.206-0.854c-0.545-0.569-0.83-1.328-0.83-2.276c0-1.068,0.332-2.04,0.996-2.966   c0.688-0.925,1.661-1.375,2.918-1.375C90.505,10.888,91.24,11.172,91.833,11.765z M89.841,7.923c-1.921,0-3.629,0.711-5.123,2.11   c-1.447,1.399-2.183,3.179-2.183,5.289c0,1.779,0.545,3.227,1.637,4.317c1.067,1.067,2.49,1.613,4.317,1.613   c2.087,0,3.842-0.688,5.241-2.063c1.4-1.399,2.111-3.084,2.111-5.053c0-1.186-0.261-2.253-0.783-3.226l-0.118-0.189h1.565   l0.332-2.775h-6.57L89.841,7.923z M68.588,12.406l-0.118,1.471l-0.973,7.092h3.202l0.664-4.934c0.166-1.542,0.403-2.633,0.711-3.32   c0.309-0.664,0.735-1.186,1.281-1.565c0.569-0.403,1.115-0.593,1.66-0.593c0.546,0,0.973,0.166,1.281,0.474   c0.308,0.309,0.474,0.807,0.474,1.447l-0.189,1.803l-0.901,6.688h3.179l1.044-7.779l0.118-1.637c0-1.163-0.355-2.111-1.067-2.847   s-1.612-1.091-2.728-1.091c-0.83,0-1.66,0.189-2.49,0.593c-0.831,0.403-1.519,0.996-2.111,1.755   c-0.213-0.545-0.475-0.973-0.807-1.28c-0.284-0.309-0.688-0.569-1.21-0.759c-0.545-0.214-1.091-0.309-1.636-0.309   c-1.424,0-2.704,0.593-3.867,1.755l0.166-1.423h-3.154L59.36,20.968h3.155l0.735-5.621c0.166-1.257,0.403-2.183,0.712-2.823   c0.308-0.593,0.711-1.091,1.257-1.446c0.593-0.355,1.115-0.521,1.589-0.521c0.522,0,0.949,0.166,1.305,0.498   C68.422,11.386,68.588,11.836,68.588,12.406z M56.752,7.947l-4.389,10.01l-4.459-10.01h-1.756l5.337,12.002l-2.514,5.788h1.755   l7.78-17.79H56.752z"/>
</g>
</svg>